<svg xmlns="http://www.w3.org/2000/svg" xmlns:xlink="http://www.w3.org/1999/xlink" viewBox="0 0 549.27 194.39"><defs><style>.cls-1{isolation:isolate;}.cls-2{fill:url(#Degradado_sin_nombre_43);}.cls-3{fill:url(#Degradado_sin_nombre_43-2);}.cls-4{fill:url(#Degradado_sin_nombre_59);}.cls-5{opacity:0.56;mix-blend-mode:multiply;fill:url(#Degradado_sin_nombre_43-3);}.cls-6{fill:#575656;}</style><linearGradient id="Degradado_sin_nombre_43" x1="107.84" y1="200.28" x2="-58.57" y2="-18.59" gradientUnits="userSpaceOnUse"><stop offset="0" stop-color="#75b8bb"/><stop offset="0.99" stop-color="#4f7a7c"/></linearGradient><linearGradient id="Degradado_sin_nombre_43-2" x1="135.71" y1="-27.46" x2="-20.29" y2="141.54" xlink:href="#Degradado_sin_nombre_43"/><linearGradient id="Degradado_sin_nombre_59" x1="425.98" y1="116.96" x2="-4.02" y2="82.96" gradientUnits="userSpaceOnUse"><stop offset="0" stop-color="#547dbd"/><stop offset="0.99" stop-color="#3f5c88"/></linearGradient><linearGradient id="Degradado_sin_nombre_43-3" x1="51.5" y1="100.35" x2="21.85" y2="117.47" xlink:href="#Degradado_sin_nombre_43"/></defs><title>logo feedma</title><g class="cls-1"><g id="Capa_2" data-name="Capa 2"><g id="Capa_1-2" data-name="Capa 1"><path class="cls-2" d="M3.49,96.89l91.68,97.5h0a30.18,30.18,0,0,0,1.28-42.66L25.09,75.94Z"/><path class="cls-3" d="M0,93.15,95.9,0h0a30.18,30.18,0,0,1-.62,42.68L20.61,115.2Z"/><path class="cls-4" d="M69.09,95l31.18-30.29h0a30.18,30.18,0,0,1-.62,42.68l-9.74,9.46Z"/><polygon class="cls-5" points="20.56 115.22 42.13 94.2 56.51 109.01 20.56 115.22"/><path class="cls-6" d="M152.73,61.55A25.08,25.08,0,0,0,147.52,77v4.13l-9.11,13.22h9.11v48.18h0A17.53,17.53,0,0,0,165.05,125V94.34h14.31V80.93H165.05V77.63a8.19,8.19,0,0,1,1.47-5A6.2,6.2,0,0,1,171.36,70c2.75,0,8.43.43,8.43.43l.4-13.93S160.86,50.51,152.73,61.55Z"/><path class="cls-6" d="M213.33,79.79c-9.07,0-16.27,2.85-21.43,8.48s-7.75,13.65-7.75,23.89c0,10,2.82,17.77,8.39,23.23s13.38,8.22,23.22,8.22a59.24,59.24,0,0,0,12.14-1.07,39.51,39.51,0,0,0,9.39-3.27l.28-.14V125.25l-.71.33a51.51,51.51,0,0,1-10.09,3.6,45.16,45.16,0,0,1-10.24,1.13c-4.54,0-8.1-1.28-10.59-3.81s-3.75-5.85-4-10.15H241v-8.52c0-8.69-2.46-15.61-7.3-20.57S222,79.79,213.33,79.79Zm-11,24.55c.34-3.69,1.43-6.59,3.24-8.62a10.05,10.05,0,0,1,7.87-3.17,10.4,10.4,0,0,1,8,3.17c1.88,2,2.9,4.92,3,8.62Z"/><path class="cls-6" d="M278.92,79.79c-9.07,0-16.27,2.85-21.43,8.48s-7.75,13.65-7.75,23.89c0,10,2.82,17.77,8.39,23.23s13.38,8.22,23.22,8.22a59.23,59.23,0,0,0,12.14-1.07,39.5,39.5,0,0,0,9.39-3.27l.28-.14V125.25l-.71.33a51.52,51.52,0,0,1-10.09,3.6,45.17,45.17,0,0,1-10.24,1.13c-4.54,0-8.1-1.28-10.59-3.81s-3.75-5.85-4-10.15h39.05v-8.52c0-8.69-2.46-15.61-7.3-20.57S287.58,79.79,278.92,79.79Zm-11,24.55c.34-3.69,1.43-6.59,3.24-8.62A10.05,10.05,0,0,1,279,92.55a10.4,10.4,0,0,1,8,3.17c1.88,2,2.9,4.92,3,8.62Z"/><path class="cls-6" d="M355.38,74.29l.43,12.46c-3.81-4.8-9-7-16.68-7-7.4,0-13.28,2.87-17.5,8.52s-6.31,13.52-6.31,23.52,2.08,17.69,6.19,23.28,9.92,8.5,17.18,8.5c7.74,0,13.61-3,17.45-8.94h.32l6.66,3.14,9.83,5V57.19h-.5A17.11,17.11,0,0,0,355.38,74.29Zm1.14,37.65v1.77c-.18,5.75-1.23,9.87-3.12,12.22s-4.86,3.5-8.9,3.5a9.54,9.54,0,0,1-8.42-4.26c-2-2.88-3-7.3-3-13.13s1-10.33,3-13.36a9.16,9.16,0,0,1,8.17-4.46c4.32,0,7.48,1.35,9.38,4S356.52,105.57,356.52,111.94Z"/><path class="cls-6" d="M460.92,79.79A24.56,24.56,0,0,0,450,82.17a17,17,0,0,0-7.25,6.51h-.88c-3.34-5.9-9.63-8.89-18.72-8.89a23.47,23.47,0,0,0-10.8,2.41,17.35,17.35,0,0,0-7.24,6.71l-.1.15-2.24-8.13H389.25v61.59h17.53v-29c0-7,.94-12.06,2.8-15.08S414.29,94,418.37,94c3,0,5.12,1,6.5,3.06s2.11,5.31,2.11,9.56v35.89h17.53V111.62c0-6.15,1-10.69,2.92-13.48S452.18,94,456.09,94c3,0,5.12,1,6.5,3.06s2.11,5.31,2.11,9.56v35.89h17.58v-40c0-7.87-1.83-13.69-5.43-17.29S467.89,79.79,460.92,79.79Z"/><path class="cls-6" d="M542.59,85.1c-4.41-3.6-10.81-5.42-19-5.42a50,50,0,0,0-23.43,5.53l-.43.23,5.9,12,.44-.2c6.45-2.88,12.12-4.35,16.87-4.35,6,0,8.93,2.85,8.93,8.71v2.17l-10,.31c-9.12.33-16.06,2.06-20.62,5.15s-7,8.06-7,14.64c0,6.25,1.74,11.15,5.16,14.55s8.16,5.13,14.09,5.13a28.38,28.38,0,0,0,11.73-2.08,24.9,24.9,0,0,0,8.69-7.32l6.46,3.83,8.92,4.83V101.64C549.27,94.29,547,88.73,542.59,85.1Zm-10.73,29.36v4.47a11.18,11.18,0,0,1-3.29,8.42,12.28,12.28,0,0,1-8.84,3.17c-5.06,0-7.52-2.12-7.52-6.49,0-3.1,1.08-5.34,3.3-6.85s5.78-2.37,10.47-2.52Z"/></g></g></g></svg>